# xmcd CD database file generated by Grip 2.94
# 
# Track frame offsets:
#       182
#       24505
#       46065
#       67932
#       89360
#       106230
#       121575
#       146632
#       164322
#       175620
#       194930
#       208742
#       231505
#       244005
# 
# Disc length: 3643 seconds
# 
# Revision: 3
# Processed by: cddbd v1.4b41PL1 Copyright (c) Steve Scherf et al.
# Submitted via: Grip 2.94
# 
DISCID=bd0e390e
DTITLE=Blue Max with Howard "Guitar" Luedtke - Molded By The Blues
DYEAR=1900
DGENRE=
TTITLE0=Stranger Blues
TTITLE1=Thought I Heard A Train
TTITLE2=Mellow Down Easy
TTITLE3=Blue and Lonesome
TTITLE4=Seventh Son
TTITLE5=Walking My Blues Away
TTITLE6=The Same Thing
TTITLE7=Sugar Coated Love
TTITLE8=Walkin Blues
TTITLE9=You Don't Love Me
TTITLE10=Howie's Boogie
TTITLE11=Sweet Home Chicago
TTITLE12=Don't Start Cryin Now
TTITLE13=Little Red Rooster
EXTD=
EXTT0=
EXTT1=
EXTT2=
EXTT3=
EXTT4=
EXTT5=
EXTT6=
EXTT7=
EXTT8=
EXTT9=
EXTT10=
EXTT11=
EXTT12=
EXTT13=
PLAYORDER=
